<svg width="44" height="25" viewBox="0 0 44 25" fill="none" xmlns="http://www.w3.org/2000/svg">
<path d="M2.17847 0C0.973905 0 0 0.964663 0 2.1578C0 3.35093 0.973905 4.3156 2.17847 4.3156C3.38304 4.3156 4.35694 3.35093 4.35694 2.1578C4.35694 0.964663 3.38304 0 2.17847 0Z" fill="#89F6FD"/>
<path d="M12.0925 0C10.888 0 9.91406 0.964663 9.91406 2.1578C9.91406 3.35093 10.888 4.3156 12.0925 4.3156C13.2971 4.3156 14.271 3.35093 14.271 2.1578C14.271 0.964663 13.2971 0 12.0925 0Z" fill="#F2F46C"/>
<path d="M22.0007 0C20.7962 0 19.8223 0.964663 19.8223 2.1578C19.8223 3.35093 20.7962 4.3156 22.0007 4.3156C23.2053 4.3156 24.1792 3.35093 24.1792 2.1578C24.1792 0.964663 23.2053 0 22.0007 0Z" fill="#FDC889"/>
<path d="M31.9089 0C30.7095 0 29.7305 0.964663 29.7305 2.1578C29.7305 3.35093 30.7044 4.3156 31.9089 4.3156C33.1135 4.3156 34.0874 3.35093 34.0874 2.1578C34.0874 0.964663 33.1135 0 31.9089 0Z" fill="#EDF7F8"/>
<path d="M7.0691 9.54997C8.27223 9.54997 9.24757 8.58389 9.24757 7.39217C9.24757 6.20045 8.27223 5.23438 7.0691 5.23438C5.86596 5.23438 4.89062 6.20045 4.89062 7.39217C4.89062 8.58389 5.86596 9.54997 7.0691 9.54997Z" fill="#89F6FD"/>
<path d="M16.9812 5.23438C15.7766 5.23438 14.8027 6.19904 14.8027 7.39217C14.8027 8.58531 15.7766 9.54997 16.9812 9.54997C18.1858 9.54997 19.1597 8.58531 19.1597 7.39217C19.1597 6.19904 18.1806 5.23438 16.9812 5.23438Z" fill="#F2F46C"/>
<path d="M26.8894 9.54997C28.0925 9.54997 29.0679 8.58389 29.0679 7.39217C29.0679 6.20045 28.0925 5.23438 26.8894 5.23438C25.6863 5.23438 24.7109 6.20045 24.7109 7.39217C24.7109 8.58389 25.6863 9.54997 26.8894 9.54997Z" fill="#FDC889"/>
<path d="M36.7976 9.54997C38.0008 9.54997 38.9761 8.58389 38.9761 7.39217C38.9761 6.20045 38.0008 5.23438 36.7976 5.23438C35.5945 5.23438 34.6191 6.20045 34.6191 7.39217C34.6191 8.58389 35.5945 9.54997 36.7976 9.54997Z" fill="#EDF7F8"/>
<path d="M12.0925 10.3379C10.888 10.3379 9.91406 11.3026 9.91406 12.4957C9.91406 13.6888 10.888 14.6535 12.0925 14.6535C13.2971 14.6535 14.271 13.6888 14.271 12.4957C14.271 11.3026 13.2971 10.3379 12.0925 10.3379Z" fill="#89F6FD"/>
<path d="M22.0007 10.3379C20.7962 10.3379 19.8223 11.3026 19.8223 12.4957C19.8223 13.6888 20.7962 14.6535 22.0007 14.6535C23.2053 14.6535 24.1792 13.6888 24.1792 12.4957C24.1792 11.3026 23.2053 10.3379 22.0007 10.3379Z" fill="#F2F46C"/>
<path d="M31.9089 10.3379C30.7044 10.3379 29.7305 11.3026 29.7305 12.4957C29.7305 13.6888 30.7044 14.6535 31.9089 14.6535C33.1135 14.6535 34.0874 13.6888 34.0874 12.4957C34.0874 11.3026 33.1135 10.3379 31.9089 10.3379Z" fill="#FDC889"/>
<path d="M41.821 10.3379C40.6165 10.3379 39.6426 11.3026 39.6426 12.4957C39.6426 13.6888 40.6165 14.6535 41.821 14.6535C43.0256 14.6535 43.9995 13.6888 43.9995 12.4957C43.9995 11.3026 43.0256 10.3379 41.821 10.3379Z" fill="#EDF7F8"/>
<path d="M7.0691 19.8918C8.27223 19.8918 9.24757 18.9257 9.24757 17.734C9.24757 16.5423 8.27223 15.5762 7.0691 15.5762C5.86596 15.5762 4.89062 16.5423 4.89062 17.734C4.89062 18.9257 5.86596 19.8918 7.0691 19.8918Z" fill="#89F6FD"/>
<path d="M16.9812 15.5762C15.7766 15.5762 14.8027 16.5408 14.8027 17.734C14.8027 18.9271 15.7766 19.8918 16.9812 19.8918C18.1858 19.8918 19.1597 18.9271 19.1597 17.734C19.1597 16.5408 18.1806 15.5762 16.9812 15.5762Z" fill="#F2F46C"/>
<path d="M26.8894 19.8918C28.0925 19.8918 29.0679 18.9257 29.0679 17.734C29.0679 16.5423 28.0925 15.5762 26.8894 15.5762C25.6863 15.5762 24.7109 16.5423 24.7109 17.734C24.7109 18.9257 25.6863 19.8918 26.8894 19.8918Z" fill="#FDC889"/>
<path d="M36.7976 19.8918C38.0008 19.8918 38.9761 18.9257 38.9761 17.734C38.9761 16.5423 38.0008 15.5762 36.7976 15.5762C35.5945 15.5762 34.6191 16.5423 34.6191 17.734C34.6191 18.9257 35.5945 19.8918 36.7976 19.8918Z" fill="#EDF7F8"/>
<path d="M2.17847 20.6797C0.973905 20.6797 0 21.6444 0 22.8375C0 24.0306 0.973905 24.9953 2.17847 24.9953C3.38304 24.9953 4.35694 24.0306 4.35694 22.8375C4.36207 21.6444 3.38304 20.6797 2.17847 20.6797Z" fill="#89F6FD"/>
<path d="M12.0925 20.6797C10.888 20.6797 9.91406 21.6444 9.91406 22.8375C9.91406 24.0306 10.888 24.9953 12.0925 24.9953C13.2971 24.9953 14.271 24.0306 14.271 22.8375C14.271 21.6444 13.2971 20.6797 12.0925 20.6797Z" fill="#F2F46C"/>
<path d="M22.0007 20.6797C20.7962 20.6797 19.8223 21.6444 19.8223 22.8375C19.8223 24.0306 20.7962 24.9953 22.0007 24.9953C23.2053 24.9953 24.1792 24.0306 24.1792 22.8375C24.1792 21.6444 23.2053 20.6797 22.0007 20.6797Z" fill="#FDC889"/>
<path d="M31.9089 20.6797C30.7044 20.6797 29.7305 21.6444 29.7305 22.8375C29.7305 24.0306 30.7044 24.9953 31.9089 24.9953C33.1135 24.9953 34.0874 24.0306 34.0874 22.8375C34.0925 21.6444 33.1135 20.6797 31.9089 20.6797Z" fill="#EDF7F8"/>
</svg>
