<svg width="18" height="18" viewBox="0 0 18 18" fill="none" xmlns="http://www.w3.org/2000/svg">
<path fill-rule="evenodd" clip-rule="evenodd" d="M4.5 2.25C2.84315 2.25 1.5 3.59315 1.5 5.25V10.5C1.5 12.1569 2.84315 13.5 4.5 13.5H6.76241L8.08874 15.5005C8.50362 16.1263 9.43441 16.0887 9.79749 15.4315L10.8647 13.5H13.5C15.1569 13.5 16.5 12.1569 16.5 10.5V5.25C16.5 3.59315 15.1569 2.25 13.5 2.25H4.5Z" fill="#496BFF"/>
<path fill-rule="evenodd" clip-rule="evenodd" d="M4.5 5.25H11.25C11.6642 5.25 12 5.58579 12 6C12 6.41421 11.6642 6.75 11.25 6.75H4.5C4.08579 6.75 3.75 6.41421 3.75 6C3.75 5.58579 4.08579 5.25 4.5 5.25ZM4.5 8.25H8.25C8.66421 8.25 9 8.58579 9 9C9 9.41421 8.66421 9.75 8.25 9.75H4.5C4.08579 9.75 3.75 9.41421 3.75 9C3.75 8.58579 4.08579 8.25 4.5 8.25Z" fill="white"/>
</svg>
