<svg width="21" height="22" viewBox="0 0 21 22" fill="none" xmlns="http://www.w3.org/2000/svg">
<path fill-rule="evenodd" clip-rule="evenodd" d="M0.534104 11.7068C0.14358 11.3163 0.14358 10.6831 0.534104 10.2926L3.41687 7.40982V4.41636C3.41687 3.86408 3.86459 3.41636 4.41687 3.41636H7.41033L9.84434 0.982347C10.2349 0.591822 10.868 0.591822 11.2586 0.982346L13.6926 3.41636H17.5835C18.1358 3.41636 18.5835 3.86407 18.5835 4.41636V8.30733L20.5688 10.2926C20.9593 10.6831 20.9593 11.3163 20.5688 11.7068L18.5835 13.692V17.583C18.5835 18.1353 18.1358 18.583 17.5835 18.583H13.6926L11.2586 21.017C10.868 21.4076 10.2349 21.4076 9.84434 21.017L7.41033 18.583H4.41687C3.86459 18.583 3.41687 18.1353 3.41687 17.583V14.5896L0.534104 11.7068ZM14.2502 10.9997C14.2502 12.7946 12.7951 14.2497 11.0002 14.2497C9.20526 14.2497 7.75018 12.7946 7.75018 10.9997C7.75018 9.20477 9.20526 7.74969 11.0002 7.74969C12.7951 7.74969 14.2502 9.20477 14.2502 10.9997Z" fill="#939BA1"/>
</svg>
