<svg width="78" height="38" viewBox="0 0 78 38" fill="none" xmlns="http://www.w3.org/2000/svg">
<path d="M6.45053 38.0005C8.29332 38.0005 9.92713 37.0542 10.706 35.5401L9.66116 34.9344C9.03423 36.07 7.87537 36.7892 6.45053 36.7892C5.40565 36.7892 4.51275 36.4296 3.79083 35.7104C3.06891 34.9723 2.70796 34.0827 2.70796 33.0418C2.70796 32.0008 3.06891 31.1113 3.79083 30.392C4.51275 29.6539 5.40565 29.2943 6.45053 29.2943C7.87537 29.2943 9.07223 30.0135 9.58517 31.1491L10.6111 30.5624C9.92713 29.0483 8.33131 28.083 6.45053 28.083C5.02569 28.083 3.82883 28.5562 2.87894 29.5214C1.92905 30.4678 1.4541 31.6412 1.4541 33.0418C1.4541 34.4423 1.92905 35.6158 2.87894 36.581C3.82883 37.5273 5.02569 38.0005 6.45053 38.0005ZM21.5134 36.581C22.4823 35.6158 22.9763 34.4423 22.9763 33.0418C22.9763 31.6412 22.4823 30.4678 21.5134 29.5214C20.5445 28.5562 19.3667 28.083 17.9798 28.083C16.593 28.083 15.3961 28.5562 14.4273 29.5214C13.4584 30.4678 12.9834 31.6412 12.9834 33.0418C12.9834 34.4423 13.4584 35.6158 14.4273 36.581C15.3961 37.5273 16.593 38.0005 17.9798 38.0005C19.3667 38.0005 20.5445 37.5273 21.5134 36.581ZM15.3201 35.7104C14.5982 34.9723 14.2373 34.0827 14.2373 33.0418C14.2373 32.0008 14.5982 31.1113 15.3201 30.392C16.0421 29.6539 16.935 29.2943 17.9798 29.2943C19.0247 29.2943 19.9176 29.6539 20.6395 30.392C21.3615 31.1113 21.7224 32.0008 21.7224 33.0418C21.7224 34.0827 21.3615 34.9723 20.6395 35.7104C19.9176 36.4296 19.0247 36.7892 17.9798 36.7892C16.935 36.7892 16.0421 36.4296 15.3201 35.7104ZM30.6599 28.083C29.235 28.083 28.1712 28.6508 27.4682 29.7864V28.3101H26.2144V37.7734H27.4682V32.8146C27.4682 30.411 28.7221 29.2943 30.5459 29.2943C32.1987 29.2943 33.1296 30.2785 33.1296 31.9629V37.7734H34.3834V31.9629C34.3834 29.5971 32.9586 28.083 30.6599 28.083ZM42.9822 28.3101H40.2465V25.6604L38.9927 26.0389V28.3101H36.9979V29.5214H38.9927V35.2562C38.9927 37.4516 40.3225 38.1708 42.9822 37.7734V36.6757C41.1584 36.7514 40.2465 36.8838 40.2465 35.2562V29.5214H42.9822V28.3101ZM47.4657 28.3101H46.2118V37.7734H47.4657V32.5118C47.4657 30.3353 48.7386 29.37 50.4674 29.37V28.1587C49.0425 28.1587 48.0546 28.7265 47.4657 29.881V28.3101ZM60.7106 36.581C61.6795 35.6158 62.1735 34.4423 62.1735 33.0418C62.1735 31.6412 61.6795 30.4678 60.7106 29.5214C59.7417 28.5562 58.5639 28.083 57.177 28.083C55.7902 28.083 54.5933 28.5562 53.6244 29.5214C52.6555 30.4678 52.1806 31.6412 52.1806 33.0418C52.1806 34.4423 52.6555 35.6158 53.6244 36.581C54.5933 37.5273 55.7902 38.0005 57.177 38.0005C58.5639 38.0005 59.7417 37.5273 60.7106 36.581ZM54.5173 35.7104C53.7954 34.9723 53.4344 34.0827 53.4344 33.0418C53.4344 32.0008 53.7954 31.1113 54.5173 30.392C55.2392 29.6539 56.1321 29.2943 57.177 29.2943C58.2219 29.2943 59.1148 29.6539 59.8367 30.392C60.5586 31.1113 60.9196 32.0008 60.9196 33.0418C60.9196 34.0827 60.5586 34.9723 59.8367 35.7104C59.1148 36.4296 58.2219 36.7892 57.177 36.7892C56.1321 36.7892 55.2392 36.4296 54.5173 35.7104ZM66.6654 37.7734V23.957H65.4116V37.7734H66.6654ZM71.4538 30.7895C71.4538 29.8243 72.3657 29.2943 73.4486 29.2943C74.6075 29.2943 75.3674 29.7296 75.7283 30.6192L76.7732 30.0135C76.2223 28.8211 74.9874 28.083 73.4486 28.083C72.5177 28.083 71.7388 28.348 71.1119 28.859C70.5039 29.37 70.2 30.0135 70.2 30.7895C70.2 32.8336 72.1947 33.2689 73.7906 33.6663C74.8734 33.9502 75.7473 34.4234 75.7473 35.2751C75.7473 36.316 74.7974 36.7892 73.5626 36.7892C72.2897 36.7892 71.3208 36.1836 70.9599 35.1994L69.896 35.824C70.4089 37.111 71.7388 38.0005 73.5626 38.0005C74.5695 38.0005 75.4054 37.7545 76.0323 37.2435C76.6782 36.7324 77.0012 36.0889 77.0012 35.2751C77.0012 33.231 75.0064 32.7957 73.4106 32.3983C72.3277 32.1144 71.4538 31.6412 71.4538 30.7895Z" fill="#636478"/>
<path d="M4.41783 10.98H11.685V8.16529H4.41783V3.46552H12.3338V0.625H1.43311V18.701H12.4636V15.8605H4.41783V10.98ZM25.4738 18.701L31.7806 0.625H28.5363L23.6829 15.1117L18.8555 0.625H15.5852L21.8921 18.701H25.4738Z" fill="#636478"/>
<path d="M49.6843 16.3251C51.5271 14.4917 52.4355 12.2709 52.4355 9.66278C52.4355 7.05467 51.5271 4.8339 49.6843 3.02629C47.8675 1.19286 45.6355 0.289062 43.0141 0.289062C40.3928 0.289062 38.1607 1.19286 36.318 3.02629C34.5012 4.8339 33.5928 7.05467 33.5928 9.66278C33.5928 12.2709 34.5012 14.4917 36.318 16.3251C38.1607 18.1327 40.3928 19.0365 43.0141 19.0365C45.6355 19.0365 47.8675 18.1327 49.6843 16.3251ZM38.4202 14.3109C37.2004 13.0714 36.5775 11.522 36.5775 9.66278C36.5775 7.80353 37.2004 6.25416 38.4202 5.04048C39.666 3.80098 41.1973 3.18123 43.0141 3.18123C44.8309 3.18123 46.3622 3.80098 47.582 5.04048C48.8278 6.25416 49.4507 7.80353 49.4507 9.66278C49.4507 11.522 48.8278 13.0714 47.582 14.3109C46.3622 15.5246 44.8309 16.1443 43.0141 16.1443C41.1973 16.1443 39.666 15.5246 38.4202 14.3109Z" fill="url(#paint0_linear)"/>
<defs>
<linearGradient id="paint0_linear" x1="47.5001" y1="18.999" x2="40.0359" y2="0.984217" gradientUnits="userSpaceOnUse">
<stop stop-color="#2D9DCE"/>
<stop offset="0.982725" stop-color="#90D3FA"/>
</linearGradient>
</defs>
</svg>
