<svg width="18" height="18" viewBox="0 0 18 18" fill="none" xmlns="http://www.w3.org/2000/svg">
<path fill-rule="evenodd" clip-rule="evenodd" d="M8.73001 15.2024C7.25266 13.902 3.75 10.5382 3.75 7.875C3.75 4.5 6 2.25 9.375 2.25C12.75 2.25 15 5.0625 15 7.875C15 10.109 11.4509 13.7627 9.99096 15.1712C9.63864 15.5111 9.0975 15.5258 8.73001 15.2024ZM11.2499 7.12503C11.2499 8.16056 10.4104 9.00003 9.37489 9.00003C8.33936 9.00003 7.49989 8.16056 7.49989 7.12503C7.49989 6.08949 8.33936 5.25003 9.37489 5.25003C10.4104 5.25003 11.2499 6.08949 11.2499 7.12503Z" fill="#496BFF"/>
</svg>
