<svg width="19" height="19" viewBox="0 0 19 19" fill="none" xmlns="http://www.w3.org/2000/svg">
<path opacity="0.3" fill-rule="evenodd" clip-rule="evenodd" d="M9.16667 18.3333C14.2293 18.3333 18.3333 14.2293 18.3333 9.16667C18.3333 4.10406 14.2293 0 9.16667 0C4.10406 0 0 4.10406 0 9.16667C0 14.2293 4.10406 18.3333 9.16667 18.3333Z" fill="white"/>
<path fill-rule="evenodd" clip-rule="evenodd" d="M10.0832 4.58268C10.0832 4.07642 9.67276 3.66602 9.1665 3.66602C8.66024 3.66602 8.24983 4.07642 8.24983 4.58268V8.24934H4.58317C4.07691 8.24934 3.6665 8.65974 3.6665 9.166C3.6665 9.67226 4.07691 10.0827 4.58317 10.0827H8.24983V13.7493C8.24983 14.2556 8.66024 14.666 9.1665 14.666C9.67276 14.666 10.0832 14.2556 10.0832 13.7493V10.0827H13.7498C14.2561 10.0827 14.6665 9.67226 14.6665 9.166C14.6665 8.65974 14.2561 8.24934 13.7498 8.24934H10.0832V4.58268Z" fill="white"/>
</svg>
