<svg width="24" height="24" viewBox="0 0 24 24" fill="none" xmlns="http://www.w3.org/2000/svg">
<path opacity="0.8" fill-rule="evenodd" clip-rule="evenodd" d="M5 7C3.89543 7 3 7.89543 3 9V17C3 18.1046 3.89543 19 5 19H19C20.1046 19 21 18.1046 21 17V9C21 7.89543 20.1046 7 19 7H5ZM8.00002 13C8.00002 15.2091 9.79088 17 12 17C14.2092 17 16 15.2091 16 13C16 10.7909 14.2092 9.00001 12 9.00001C9.79088 9.00001 8.00002 10.7909 8.00002 13Z" fill="#496BFF"/>
<rect opacity="0.6" x="9" y="4" width="6" height="2" rx="1" fill="#496BFF"/>
<path opacity="0.6" fill-rule="evenodd" clip-rule="evenodd" d="M12 15C13.1046 15 14 14.1046 14 13C14 11.8954 13.1046 11 12 11C10.8954 11 10 11.8954 10 13C10 14.1046 10.8954 15 12 15Z" fill="#496BFF"/>
</svg>
