<svg width="87" height="43" viewBox="0 0 87 43" fill="none" xmlns="http://www.w3.org/2000/svg">
<path d="M7.28781 43.0007C9.3699 43.0007 11.2159 41.9299 12.0959 40.2165L10.9154 39.5312C10.207 40.8162 8.89767 41.63 7.28781 41.63C6.10725 41.63 5.09841 41.2231 4.28274 40.4093C3.46708 39.574 3.05925 38.5674 3.05925 37.3895C3.05925 36.2116 3.46708 35.205 4.28274 34.3911C5.09841 33.5559 6.10725 33.1489 7.28781 33.1489C8.89767 33.1489 10.25 33.9628 10.8295 35.2478L11.9886 34.5839C11.2159 32.8705 9.41283 31.7783 7.28781 31.7783C5.67795 31.7783 4.32567 32.3137 3.25243 33.4059C2.1792 34.4768 1.64258 35.8046 1.64258 37.3895C1.64258 38.9743 2.1792 40.3022 3.25243 41.3945C4.32567 42.4653 5.67795 43.0007 7.28781 43.0007ZM24.3067 41.3945C25.4014 40.3022 25.9595 38.9743 25.9595 37.3895C25.9595 35.8046 25.4014 34.4768 24.3067 33.4059C23.212 32.3137 21.8812 31.7783 20.3143 31.7783C18.7473 31.7783 17.395 32.3137 16.3004 33.4059C15.2057 34.4768 14.669 35.8046 14.669 37.3895C14.669 38.9743 15.2057 40.3022 16.3004 41.3945C17.395 42.4653 18.7473 43.0007 20.3143 43.0007C21.8812 43.0007 23.212 42.4653 24.3067 41.3945ZM17.3092 40.4093C16.4935 39.574 16.0857 38.5674 16.0857 37.3895C16.0857 36.2116 16.4935 35.205 17.3092 34.3911C18.1248 33.5559 19.1337 33.1489 20.3143 33.1489C21.4948 33.1489 22.5037 33.5559 23.3193 34.3911C24.135 35.205 24.5428 36.2116 24.5428 37.3895C24.5428 38.5674 24.135 39.574 23.3193 40.4093C22.5037 41.2231 21.4948 41.63 20.3143 41.63C19.1337 41.63 18.1248 41.2231 17.3092 40.4093ZM34.6408 31.7783C33.031 31.7783 31.829 32.4208 31.0348 33.7058V32.0353H29.6181V42.7437H31.0348V37.1325C31.0348 34.4125 32.4514 33.1489 34.5121 33.1489C36.3795 33.1489 37.4313 34.2626 37.4313 36.1687V42.7437H38.8479V36.1687C38.8479 33.4916 37.2381 31.7783 34.6408 31.7783ZM48.5633 32.0353H45.4724V29.0369L44.0557 29.4652V32.0353H41.8019V33.4059H44.0557V39.8953C44.0557 42.3796 45.5582 43.1935 48.5633 42.7437V41.5015C46.5027 41.5872 45.4724 41.7371 45.4724 39.8953V33.4059H48.5633V32.0353ZM53.629 32.0353H52.2123V42.7437H53.629V36.7898C53.629 34.3269 55.0671 33.2346 57.0204 33.2346V31.8639C55.4106 31.8639 54.2944 32.5064 53.629 33.8129V32.0353ZM68.5938 41.3945C69.6885 40.3022 70.2466 38.9743 70.2466 37.3895C70.2466 35.8046 69.6885 34.4768 68.5938 33.4059C67.4991 32.3137 66.1683 31.7783 64.6014 31.7783C63.0344 31.7783 61.6822 32.3137 60.5875 33.4059C59.4928 34.4768 58.9561 35.8046 58.9561 37.3895C58.9561 38.9743 59.4928 40.3022 60.5875 41.3945C61.6822 42.4653 63.0344 43.0007 64.6014 43.0007C66.1683 43.0007 67.4991 42.4653 68.5938 41.3945ZM61.5963 40.4093C60.7806 39.574 60.3728 38.5674 60.3728 37.3895C60.3728 36.2116 60.7806 35.205 61.5963 34.3911C62.412 33.5559 63.4208 33.1489 64.6014 33.1489C65.7819 33.1489 66.7908 33.5559 67.6064 34.3911C68.4221 35.205 68.8299 36.2116 68.8299 37.3895C68.8299 38.5674 68.4221 39.574 67.6064 40.4093C66.7908 41.2231 65.7819 41.63 64.6014 41.63C63.4208 41.63 62.412 41.2231 61.5963 40.4093ZM75.3219 42.7437V27.1094H73.9052V42.7437H75.3219ZM80.7321 34.8409C80.7321 33.7486 81.7624 33.1489 82.9859 33.1489C84.2952 33.1489 85.1538 33.6415 85.5617 34.6481L86.7422 33.9628C86.1197 32.6135 84.7245 31.7783 82.9859 31.7783C81.9341 31.7783 81.0541 32.0781 80.3457 32.6564C79.6588 33.2346 79.3154 33.9628 79.3154 34.8409C79.3154 37.1539 81.5692 37.6465 83.3722 38.0963C84.5957 38.4175 85.5831 38.9529 85.5831 39.9167C85.5831 41.0946 84.5099 41.63 83.1147 41.63C81.6765 41.63 80.5818 40.9447 80.174 39.831L78.972 40.5378C79.5515 41.9941 81.0541 43.0007 83.1147 43.0007C84.2523 43.0007 85.1968 42.7223 85.9051 42.144C86.6349 41.5658 86.9998 40.8376 86.9998 39.9167C86.9998 37.6037 84.746 37.1111 82.943 36.6613C81.7195 36.3401 80.7321 35.8046 80.7321 34.8409Z" fill="#2F3357"/>
<path d="M4.99144 12.4246H13.2023V9.23949H4.99144V3.92132H13.9354V0.707031H1.61914V21.1616H14.082V17.9473H4.99144V12.4246ZM28.7816 21.1616L35.9074 0.707031H32.2419L26.7582 17.0999L21.3039 0.707031H17.609L24.7348 21.1616H28.7816Z" fill="#2F3357"/>
<path d="M56.1362 18.4742C58.2182 16.3995 59.2446 13.8866 59.2446 10.9353C59.2446 7.98396 58.2182 5.47098 56.1362 3.42553C54.0835 1.35085 51.5616 0.328125 48.5998 0.328125C45.6381 0.328125 43.1162 1.35085 41.0341 3.42553C38.9814 5.47098 37.9551 7.98396 37.9551 10.9353C37.9551 13.8866 38.9814 16.3995 41.0341 18.4742C43.1162 20.5197 45.6381 21.5424 48.5998 21.5424C51.5616 21.5424 54.0835 20.5197 56.1362 18.4742ZM43.4094 16.195C42.0312 14.7924 41.3274 13.0392 41.3274 10.9353C41.3274 8.83136 42.0312 7.07812 43.4094 5.70474C44.817 4.30215 46.5471 3.60085 48.5998 3.60085C50.6525 3.60085 52.3827 4.30215 53.7609 5.70474C55.1685 7.07812 55.8723 8.83136 55.8723 10.9353C55.8723 13.0392 55.1685 14.7924 53.7609 16.195C52.3827 17.5684 50.6525 18.2697 48.5998 18.2697C46.5471 18.2697 44.817 17.5684 43.4094 16.195Z" fill="url(#paint0_linear)"/>
<defs>
<linearGradient id="paint0_linear" x1="53.6684" y1="21.5" x2="45.2128" y2="1.12388" gradientUnits="userSpaceOnUse">
<stop stop-color="#2D9DCE"/>
<stop offset="0.982725" stop-color="#90D3FA"/>
</linearGradient>
</defs>
</svg>
