<svg width="22" height="22" viewBox="0 0 22 22" fill="none" xmlns="http://www.w3.org/2000/svg">
<path opacity="0.3" fill-rule="evenodd" clip-rule="evenodd" d="M11.0002 20.1673C16.0628 20.1673 20.1668 16.0633 20.1668 11.0007C20.1668 5.93804 16.0628 1.83398 11.0002 1.83398C5.93755 1.83398 1.8335 5.93804 1.8335 11.0007C1.8335 16.0633 5.93755 20.1673 11.0002 20.1673Z" fill="white"/>
<path fill-rule="evenodd" clip-rule="evenodd" d="M11.9167 6.41667C11.9167 5.91041 11.5063 5.5 11 5.5C10.4937 5.5 10.0833 5.91041 10.0833 6.41667V10.0833H6.41667C5.91041 10.0833 5.5 10.4937 5.5 11C5.5 11.5062 5.91041 11.9167 6.41667 11.9167H10.0833V15.5833C10.0833 16.0896 10.4937 16.5 11 16.5C11.5063 16.5 11.9167 16.0896 11.9167 15.5833V11.9167H15.5833C16.0896 11.9167 16.5 11.5062 16.5 11C16.5 10.4937 16.0896 10.0833 15.5833 10.0833H11.9167V6.41667Z" fill="white"/>
</svg>
