<svg width="14" height="14" viewBox="0 0 14 14" fill="none" xmlns="http://www.w3.org/2000/svg">
<path opacity="0.3" fill-rule="evenodd" clip-rule="evenodd" d="M6.99984 12.8327C10.2215 12.8327 12.8332 10.221 12.8332 6.99935C12.8332 3.77769 10.2215 1.16602 6.99984 1.16602C3.77818 1.16602 1.1665 3.77769 1.1665 6.99935C1.1665 10.221 3.77818 12.8327 6.99984 12.8327Z" fill="#25AE33"/>
<path d="M9.78189 4.56032C10.0017 4.3248 10.3708 4.31207 10.6064 4.53189C10.8419 4.75171 10.8546 5.12083 10.6348 5.35635L6.55146 9.73136C6.33819 9.95986 5.9827 9.97965 5.74538 9.77624L3.70372 8.02624C3.45911 7.81657 3.43078 7.44831 3.64044 7.20371C3.85011 6.9591 4.21837 6.93077 4.46297 7.14044L6.08009 8.52654L9.78189 4.56032Z" fill="#25AE33"/>
</svg>
