<svg width="24" height="24" viewBox="0 0 24 24" fill="none" xmlns="http://www.w3.org/2000/svg">
<path opacity="0.5" d="M12.0001 11C9.79092 11 8.00006 9.20914 8.00006 7C8.00006 4.79086 9.79092 3 12.0001 3C14.2092 3 16.0001 4.79086 16.0001 7C16.0001 9.20914 14.2092 11 12.0001 11Z" fill="#496BFF"/>
<path d="M3.00065 20.1992C3.38826 15.4265 7.26191 13 11.9833 13C16.7712 13 20.7049 15.2932 20.9979 20.2C21.0096 20.3955 20.9979 21 20.2467 21C16.5411 21 11.0347 21 3.7275 21C3.47671 21 2.97954 20.4592 3.00065 20.1992Z" fill="#496BFF"/>
</svg>
