<?xml version="1.0" encoding="utf-8"?><svg width="23" height="23" fill="none" xmlns="http://www.w3.org/2000/svg" viewBox="0 0 23 23"><path fill-rule="evenodd" clip-rule="evenodd" d="M18.977 8.86a2.783 2.783 0 00-1.26-.958A4.172 4.172 0 0016.2 7.6c-.633 0-1.208.115-1.725.345-.518.23-.963.547-1.337.949a4.218 4.218 0 00-.863 1.415 5.005 5.005 0 00-.302 1.759c0 .667.098 1.277.294 1.829.195.552.474 1.026.836 1.423a3.76 3.76 0 001.303.922c.506.219 1.075.328 1.707.328.656 0 1.237-.13 1.743-.388.506-.259.914-.6 1.224-1.026l1.743 1.225a5.58 5.58 0 01-1.984 1.578c-.782.374-1.696.56-2.743.56-.954 0-1.831-.158-2.63-.474a6.06 6.06 0 01-2.062-1.328 6.046 6.046 0 01-1.345-2.036c-.322-.787-.483-1.658-.483-2.613 0-.977.17-1.86.509-2.648a5.897 5.897 0 011.397-2.01 6.204 6.204 0 012.096-1.276 7.473 7.473 0 013.846-.336c.426.074.834.19 1.225.345.391.155.76.348 1.104.578.345.23.638.506.88.828l-1.656 1.31z" fill="#72A2FE"/><path opacity=".5" fill-rule="evenodd" clip-rule="evenodd" d="M2.822 7.48c-.144.333-.216.69-.216 1.07 0 .379.072.735.216 1.069a2.798 2.798 0 001.475 1.474c.333.144.69.216 1.07.216.379 0 .735-.072 1.069-.216A2.798 2.798 0 007.91 9.62c.144-.334.215-.69.215-1.07 0-.38-.071-.736-.215-1.07a2.799 2.799 0 00-1.475-1.474 2.673 2.673 0 00-1.07-.216c-.38 0-.736.072-1.069.216A2.799 2.799 0 002.822 7.48zm1.544 2.07a1.363 1.363 0 01-.414-1c0-.392.138-.725.414-1.001.276-.276.61-.414 1-.414.391 0 .725.138 1.001.414.276.276.414.61.414 1 0 .391-.138.725-.414 1-.276.277-.61.415-1 .415-.392 0-.725-.138-1.001-.414z" fill="#72A2FE"/></svg>