<?xml version="1.0" encoding="utf-8"?><svg width="87" height="43" fill="none" xmlns="http://www.w3.org/2000/svg" viewBox="0 0 87 43"><path d="M7.288 43c2.082 0 3.928-1.07 4.808-2.783l-1.18-.686c-.709 1.285-2.018 2.099-3.628 2.099-1.18 0-2.19-.407-3.005-1.22-.816-.836-1.224-1.843-1.224-3.02 0-1.178.408-2.185 1.224-2.999.815-.835 1.824-1.242 3.005-1.242 1.61 0 2.962.814 3.541 2.099l1.16-.664c-.773-1.714-2.576-2.806-4.701-2.806-1.61 0-2.962.536-4.036 1.628-1.073 1.07-1.61 2.399-1.61 3.983 0 1.585.537 2.913 1.61 4.005 1.074 1.071 2.426 1.607 4.036 1.607zm17.019-1.605c1.094-1.093 1.652-2.42 1.652-4.006 0-1.584-.558-2.912-1.652-3.983-1.095-1.092-2.426-1.628-3.993-1.628-1.567 0-2.919.536-4.014 1.628-1.094 1.07-1.631 2.399-1.631 3.983 0 1.585.537 2.913 1.631 4.005 1.095 1.071 2.447 1.607 4.014 1.607 1.567 0 2.898-.536 3.993-1.606zm-6.998-.986c-.816-.835-1.223-1.842-1.223-3.02 0-1.177.408-2.184 1.223-2.998.816-.835 1.825-1.242 3.005-1.242s2.19.407 3.005 1.242c.816.814 1.224 1.82 1.224 2.998 0 1.178-.408 2.185-1.224 3.02-.815.814-1.824 1.221-3.005 1.221-1.18 0-2.19-.407-3.005-1.22zm17.332-8.63c-1.61 0-2.812.642-3.606 1.927v-1.67h-1.417v10.708h1.417v-5.611c0-2.72 1.416-3.984 3.477-3.984 1.867 0 2.92 1.114 2.92 3.02v6.575h1.416v-6.575c0-2.677-1.61-4.39-4.207-4.39zm13.922.256h-3.09v-2.998l-1.417.428v2.57h-2.254v1.37h2.254v6.49c0 2.485 1.502 3.298 4.507 2.849v-1.242c-2.06.085-3.09.235-3.09-1.607v-6.49h3.09v-1.37zm5.066 0h-1.417v10.709h1.417V36.79c0-2.463 1.438-3.555 3.391-3.555v-1.371c-1.61 0-2.726.642-3.391 1.949v-1.778zm14.965 9.36c1.095-1.093 1.653-2.42 1.653-4.006 0-1.584-.558-2.912-1.653-3.983-1.095-1.092-2.426-1.628-3.993-1.628-1.567 0-2.919.536-4.014 1.628-1.094 1.07-1.63 2.399-1.63 3.983 0 1.585.536 2.913 1.63 4.005 1.095 1.071 2.447 1.607 4.014 1.607 1.567 0 2.898-.536 3.993-1.606zm-6.998-.986c-.815-.835-1.223-1.842-1.223-3.02 0-1.177.408-2.184 1.223-2.998.816-.835 1.825-1.242 3.005-1.242s2.19.407 3.005 1.242c.816.814 1.224 1.82 1.224 2.998 0 1.178-.408 2.185-1.224 3.02-.815.814-1.824 1.221-3.005 1.221-1.18 0-2.189-.407-3.005-1.22zm13.726 2.335V27.109h-1.417v15.635h1.417zm5.41-7.903c0-1.092 1.03-1.692 2.254-1.692 1.31 0 2.168.492 2.576 1.5l1.18-.686c-.622-1.35-2.017-2.185-3.756-2.185-1.052 0-1.932.3-2.64.878-.687.579-1.03 1.307-1.03 2.185 0 2.313 2.253 2.806 4.056 3.255 1.224.322 2.211.857 2.211 1.82 0 1.179-1.073 1.714-2.468 1.714-1.438 0-2.533-.685-2.941-1.799l-1.202.707c.58 1.456 2.082 2.463 4.143 2.463 1.137 0 2.082-.279 2.79-.857.73-.578 1.095-1.306 1.095-2.227 0-2.313-2.254-2.806-4.057-3.256-1.224-.32-2.21-.856-2.21-1.82zM4.991 12.425h8.211V9.239h-8.21V3.921h8.943V.707H1.62v20.455h12.463v-3.215h-9.09v-5.522zm23.79 8.737L35.908.707h-3.665L26.758 17.1 21.304.707h-3.695l7.126 20.455h4.047z" fill="#2F3357"/><path d="M56.136 18.474c2.082-2.075 3.109-4.587 3.109-7.539 0-2.951-1.027-5.464-3.109-7.51C54.083 1.352 51.562.329 48.6.329c-2.962 0-5.484 1.023-7.566 3.098-2.053 2.045-3.079 4.558-3.079 7.51 0 2.95 1.026 5.463 3.08 7.538 2.081 2.046 4.603 3.068 7.565 3.068 2.962 0 5.483-1.022 7.536-3.068zM43.41 16.195c-1.378-1.403-2.082-3.156-2.082-5.26 0-2.104.704-3.857 2.082-5.23C44.817 4.302 46.547 3.6 48.6 3.6c2.054 0 3.784.701 5.162 2.104 1.407 1.373 2.111 3.126 2.111 5.23 0 2.104-.703 3.857-2.111 5.26-1.378 1.373-3.108 2.075-5.161 2.075-2.053 0-3.783-.702-5.19-2.075z" fill="url(#apaint0_linear)"/><defs><linearGradient id="apaint0_linear" x1="53.668" y1="21.5" x2="45.213" y2="1.124" gradientUnits="userSpaceOnUse"><stop stop-color="#2D9DCE"/><stop offset=".983" stop-color="#90D3FA"/></linearGradient></defs></svg>