<?xml version="1.0" encoding="utf-8"?><svg width="78" height="38" fill="none" xmlns="http://www.w3.org/2000/svg" viewBox="0 0 78 38"><path d="M6.45 38c1.843 0 3.477-.946 4.256-2.46l-1.045-.606c-.627 1.136-1.786 1.855-3.21 1.855-1.045 0-1.938-.36-2.66-1.079-.722-.738-1.083-1.627-1.083-2.668 0-1.041.36-1.93 1.083-2.65.722-.738 1.615-1.098 2.66-1.098 1.424 0 2.621.72 3.134 1.855l1.026-.587c-.684-1.514-2.28-2.479-4.16-2.479-1.425 0-2.622.473-3.572 1.438-.95.947-1.425 2.12-1.425 3.52 0 1.401.475 2.575 1.425 3.54.95.946 2.147 1.42 3.572 1.42zm15.063-1.419c.97-.965 1.463-2.139 1.463-3.54 0-1.4-.494-2.573-1.463-3.52-.969-.965-2.146-1.438-3.533-1.438s-2.584.473-3.553 1.438c-.969.947-1.444 2.12-1.444 3.52 0 1.401.475 2.575 1.444 3.54.97.946 2.166 1.42 3.553 1.42s2.564-.474 3.533-1.42zm-6.193-.87c-.722-.739-1.083-1.628-1.083-2.67 0-1.04.361-1.93 1.083-2.649.722-.738 1.615-1.098 2.66-1.098 1.045 0 1.938.36 2.66 1.098.721.72 1.082 1.609 1.082 2.65 0 1.04-.36 1.93-1.082 2.668-.722.72-1.615 1.08-2.66 1.08-1.045 0-1.938-.36-2.66-1.08zm15.34-7.628c-1.425 0-2.489.568-3.192 1.703V28.31h-1.254v9.463h1.254v-4.958c0-2.404 1.254-3.52 3.078-3.52 1.653 0 2.584.983 2.584 2.668v5.81h1.253v-5.81c0-2.366-1.424-3.88-3.723-3.88zm12.322.227h-2.736v-2.65l-1.253.379v2.271h-1.995v1.211h1.995v5.735c0 2.196 1.33 2.915 3.99 2.517v-1.097c-1.825.075-2.736.208-2.736-1.42v-5.735h2.735v-1.21zm4.484 0h-1.254v9.463h1.254v-5.261c0-2.177 1.273-3.142 3.001-3.142v-1.211c-1.425 0-2.412.568-3.001 1.722v-1.57zm13.245 8.271c.968-.965 1.462-2.139 1.462-3.54 0-1.4-.494-2.573-1.462-3.52-.97-.965-2.147-1.438-3.534-1.438s-2.584.473-3.553 1.438c-.968.947-1.443 2.12-1.443 3.52 0 1.401.475 2.575 1.443 3.54.97.946 2.166 1.42 3.553 1.42s2.565-.474 3.534-1.42zm-6.194-.87c-.722-.739-1.083-1.628-1.083-2.67 0-1.04.361-1.93 1.083-2.649.722-.738 1.615-1.098 2.66-1.098 1.045 0 1.938.36 2.66 1.098.722.72 1.083 1.609 1.083 2.65 0 1.04-.361 1.93-1.083 2.668-.722.72-1.615 1.08-2.66 1.08-1.045 0-1.938-.36-2.66-1.08zm12.148 2.062V23.957h-1.253v13.816h1.253zm4.789-6.984c0-.965.912-1.495 1.995-1.495 1.159 0 1.918.436 2.28 1.325l1.044-.605c-.55-1.193-1.786-1.931-3.324-1.931-.931 0-1.71.265-2.337.776-.608.511-.912 1.154-.912 1.93 0 2.045 1.995 2.48 3.59 2.877 1.083.284 1.957.757 1.957 1.61 0 1.04-.95 1.513-2.184 1.513-1.273 0-2.242-.605-2.603-1.59l-1.064.625c.513 1.287 1.843 2.177 3.667 2.177 1.007 0 1.842-.246 2.47-.758.645-.51.968-1.154.968-1.968 0-2.044-1.995-2.48-3.59-2.877-1.083-.284-1.957-.757-1.957-1.609zM4.418 10.98h7.267V8.165H4.418v-4.7h7.916V.626h-10.9v18.076h11.03v-2.84H4.418V10.98zm21.056 7.721L31.78.625h-3.245l-4.853 14.487L18.855.625h-3.27l6.307 18.076h3.582z" fill="#636478"/><path d="M49.684 16.325c1.843-1.833 2.752-4.054 2.752-6.662 0-2.608-.909-4.83-2.752-6.637C47.868 1.193 45.636.29 43.014.29c-2.621 0-4.853.904-6.696 2.737-1.817 1.808-2.725 4.029-2.725 6.637 0 2.608.908 4.829 2.725 6.662 1.843 1.808 4.075 2.712 6.696 2.712 2.621 0 4.853-.904 6.67-2.712zM38.42 14.311c-1.22-1.24-1.843-2.789-1.843-4.648 0-1.86.623-3.409 1.843-4.623 1.246-1.239 2.777-1.859 4.594-1.859 1.817 0 3.348.62 4.568 1.86 1.246 1.213 1.869 2.763 1.869 4.622s-.623 3.408-1.869 4.648c-1.22 1.214-2.751 1.833-4.568 1.833-1.817 0-3.348-.62-4.594-1.833z" fill="url(#ppaint0_linear)"/><defs><linearGradient id="ppaint0_linear" x1="47.5" y1="18.999" x2="40.036" y2=".984" gradientUnits="userSpaceOnUse"><stop stop-color="#2D9DCE"/><stop offset=".983" stop-color="#90D3FA"/></linearGradient></defs></svg>