<?xml version="1.0" encoding="utf-8"?><svg width="21" height="22" fill="none" xmlns="http://www.w3.org/2000/svg" viewBox="0 0 21 22"><path fill-rule="evenodd" clip-rule="evenodd" d="M.534 11.707a1 1 0 010-1.414L3.417 7.41V4.416a1 1 0 011-1H7.41L9.844.982a1 1 0 011.415 0l2.434 2.434h3.89a1 1 0 011 1v3.891l1.986 1.986a1 1 0 010 1.414l-1.985 1.985v3.891a1 1 0 01-1 1h-3.891l-2.434 2.434a1 1 0 01-1.415 0L7.41 18.583H4.417a1 1 0 01-1-1V14.59L.534 11.707zM14.25 11a3.25 3.25 0 11-6.5 0 3.25 3.25 0 016.5 0z" fill="#939BA1"/></svg>