<?xml version="1.0" encoding="utf-8"?><svg viewBox="0 0 87 43" xmlns="http://www.w3.org/2000/svg" xmlns:xlink="http://www.w3.org/1999/xlink"><style>:root>svg{display:none}:root>svg:target{display:block}</style><svg fill="none" viewBox="0 0 11 6" id="arrow" xmlns="http://www.w3.org/2000/svg"><path d="M5.5 4.021L1.67.691a.458.458 0 00-.59.702l3.964 3.57c.267.225.66.214.914-.025L9.94 1.376A.458.458 0 109.311.71L5.5 4.02z" fill="#939BA1" stroke="#939BA1" stroke-width=".5"/></svg><svg fill="none" viewBox="0 0 24 24" id="camera" xmlns="http://www.w3.org/2000/svg"><path opacity=".8" fill-rule="evenodd" clip-rule="evenodd" d="M5 7a2 2 0 00-2 2v8a2 2 0 002 2h14a2 2 0 002-2V9a2 2 0 00-2-2H5zm3 6a4 4 0 108 0 4 4 0 00-8 0z" fill="#496BFF"/><rect opacity=".6" x="9" y="4" width="6" height="2" rx="1" fill="#496BFF"/><path opacity=".6" fill-rule="evenodd" clip-rule="evenodd" d="M12 15a2 2 0 100-4 2 2 0 000 4z" fill="#496BFF"/></svg><svg fill="none" viewBox="0 0 24 24" id="camera-white" xmlns="http://www.w3.org/2000/svg"><path opacity=".8" fill-rule="evenodd" clip-rule="evenodd" d="M5 7a2 2 0 00-2 2v8a2 2 0 002 2h14a2 2 0 002-2V9a2 2 0 00-2-2H5zm3 6a4 4 0 108 0 4 4 0 00-8 0z" fill="#fff"/><rect opacity=".6" x="9" y="4" width="6" height="2" rx="1" fill="#fff"/><path opacity=".6" fill-rule="evenodd" clip-rule="evenodd" d="M12 15a2 2 0 100-4 2 2 0 000 4z" fill="#fff"/></svg><svg fill="none" viewBox="0 0 14 8" id="caret-down" xmlns="http://www.w3.org/2000/svg"><path d="M6.293 7.293a1 1 0 001.414 0l4.586-4.586c.63-.63.184-1.707-.707-1.707H2.414c-.89 0-1.337 1.077-.707 1.707l4.586 4.586z" fill="#28ABE8"/></svg><svg fill="none" viewBox="0 0 14 8" id="caret-up" xmlns="http://www.w3.org/2000/svg"><path d="M6.293.707a1 1 0 011.414 0l4.586 4.586c.63.63.184 1.707-.707 1.707H2.414c-.89 0-1.337-1.077-.707-1.707L6.293.707z" fill="#F46748"/></svg><svg fill="none" viewBox="0 0 23 23" id="celcium" xmlns="http://www.w3.org/2000/svg"><path fill-rule="evenodd" clip-rule="evenodd" d="M18.977 8.86a2.783 2.783 0 00-1.26-.958A4.172 4.172 0 0016.2 7.6c-.633 0-1.208.115-1.725.345-.518.23-.963.547-1.337.949a4.218 4.218 0 00-.863 1.415 5.005 5.005 0 00-.302 1.759c0 .667.098 1.277.294 1.829.195.552.474 1.026.836 1.423a3.76 3.76 0 001.303.922c.506.219 1.075.328 1.707.328.656 0 1.237-.13 1.743-.388.506-.259.914-.6 1.224-1.026l1.743 1.225a5.58 5.58 0 01-1.984 1.578c-.782.374-1.696.56-2.743.56-.954 0-1.831-.158-2.63-.474a6.06 6.06 0 01-2.062-1.328 6.046 6.046 0 01-1.345-2.036c-.322-.787-.483-1.658-.483-2.613 0-.977.17-1.86.509-2.648a5.897 5.897 0 011.397-2.01 6.204 6.204 0 012.096-1.276 7.473 7.473 0 013.846-.336c.426.074.834.19 1.225.345.391.155.76.348 1.104.578.345.23.638.506.88.828l-1.656 1.31z" fill="#72A2FE"/><path opacity=".5" fill-rule="evenodd" clip-rule="evenodd" d="M2.822 7.48c-.144.333-.216.69-.216 1.07 0 .379.072.735.216 1.069a2.798 2.798 0 001.475 1.474c.333.144.69.216 1.07.216.379 0 .735-.072 1.069-.216A2.798 2.798 0 007.91 9.62c.144-.334.215-.69.215-1.07 0-.38-.071-.736-.215-1.07a2.799 2.799 0 00-1.475-1.474 2.673 2.673 0 00-1.07-.216c-.38 0-.736.072-1.069.216A2.799 2.799 0 002.822 7.48zm1.544 2.07a1.363 1.363 0 01-.414-1c0-.392.138-.725.414-1.001.276-.276.61-.414 1-.414.391 0 .725.138 1.001.414.276.276.414.61.414 1 0 .391-.138.725-.414 1-.276.277-.61.415-1 .415-.392 0-.725-.138-1.001-.414z" fill="#72A2FE"/></svg><svg fill="none" viewBox="0 0 18 18" id="chat" xmlns="http://www.w3.org/2000/svg"><path fill-rule="evenodd" clip-rule="evenodd" d="M4.5 2.25a3 3 0 00-3 3v5.25a3 3 0 003 3h2.262l1.327 2a1 1 0 001.708-.069l1.068-1.931H13.5a3 3 0 003-3V5.25a3 3 0 00-3-3h-9z" fill="#496BFF"/><path fill-rule="evenodd" clip-rule="evenodd" d="M4.5 5.25h6.75a.75.75 0 010 1.5H4.5a.75.75 0 010-1.5zm0 3h3.75a.75.75 0 010 1.5H4.5a.75.75 0 010-1.5z" fill="#fff"/></svg><svg fill="none" viewBox="0 0 10 9" id="check" xmlns="http://www.w3.org/2000/svg"><path fill-rule="evenodd" clip-rule="evenodd" d="M0 5.273l1.61-1.684 1.887 1.735L8.683.445 10 2.15 3.452 8.223 0 5.273z" fill="#496BFF"/></svg><svg fill="none" viewBox="0 0 82 14" id="close" xmlns="http://www.w3.org/2000/svg"><rect width="17.599" height="2.2" rx="1.1" transform="rotate(-44.998 15.021 6.221)" fill="#2F3357"/><rect width="17.599" height="2.2" rx="1.1" transform="rotate(44.998 .778 1.878)" fill="#2F3357"/><rect width="17.599" height="2.2" rx="1.1" transform="rotate(-44.998 32.522 -36.03)" fill="#6D89FF"/><rect width="17.599" height="2.2" rx="1.1" transform="rotate(44.998 18.278 44.128)" fill="#6D89FF"/><rect width="17.599" height="2.2" rx="1.1" transform="rotate(-44.998 49.021 -75.865)" fill="#496BFF"/><rect width="17.599" height="2.2" rx="1.1" transform="rotate(44.998 34.778 83.965)" fill="#496BFF"/></svg><svg fill="none" viewBox="0 0 14 14" id="error" xmlns="http://www.w3.org/2000/svg"><path opacity=".3" fill-rule="evenodd" clip-rule="evenodd" d="M7.894 3.214a1 1 0 00-1.728.035l-4.175 7.515a1 1 0 00.875 1.486h8.767a1 1 0 00.853-1.521L7.894 3.214z" fill="#FB3333"/><rect x="6.416" y="5.25" width="1.167" height="4.083" rx=".583" fill="#FB3333"/><rect x="6.416" y="9.916" width="1.167" height="1.167" rx=".583" fill="#FB3333"/></svg><svg fill="none" viewBox="0 0 15 15" id="error-alert" xmlns="http://www.w3.org/2000/svg"><path fill-rule="evenodd" clip-rule="evenodd" d="M8.612 3.32a1 1 0 00-1.723.035l-4.648 8.28a1 1 0 00.872 1.49h9.761a1 1 0 00.85-1.525L8.613 3.32z" fill="#FB3333"/><rect x="7.088" y="5.625" width="1.263" height="4.375" rx=".632" fill="#FAE2E2"/><rect x="7.088" y="10.625" width="1.263" height="1.25" rx=".625" fill="#FAE2E2"/></svg><svg fill="none" viewBox="0 0 14 14" id="error-valid" xmlns="http://www.w3.org/2000/svg"><path opacity=".3" fill-rule="evenodd" clip-rule="evenodd" d="M7 12.833A5.833 5.833 0 107 1.166a5.833 5.833 0 000 11.667z" fill="#FB3333"/><path fill-rule="evenodd" clip-rule="evenodd" d="M9.496 4.546a.583.583 0 00-.825 0l-1.65 1.65-1.65-1.65a.583.583 0 00-.825.825l1.65 1.65-1.65 1.65a.583.583 0 00.825.825l1.65-1.65 1.65 1.65a.583.583 0 10.825-.825l-1.65-1.65 1.65-1.65a.583.583 0 000-.825z" fill="#FB3333"/></svg><svg fill="none" viewBox="0 0 35 35" id="info" xmlns="http://www.w3.org/2000/svg"><rect width="34.638" height="35" rx="5" fill="#FAE2E2"/><path fill-rule="evenodd" clip-rule="evenodd" d="M18.518 10.089a1 1 0 00-1.727.035L9.699 22.89a1 1 0 00.874 1.486h14.893a1 1 0 00.853-1.521l-7.8-12.765z" fill="#FB3333"/><rect x="16.749" y="13.875" width="1.75" height="6.125" rx=".875" fill="#FAE2E2"/><rect x="16.749" y="20.875" width="1.75" height="1.75" rx=".875" fill="#FAE2E2"/></svg><svg fill="none" viewBox="0 0 15 15" id="info-alert" xmlns="http://www.w3.org/2000/svg"><path opacity=".3" fill-rule="evenodd" clip-rule="evenodd" d="M7.5 13.75a6.25 6.25 0 100-12.5 6.25 6.25 0 000 12.5z" fill="#496BFF"/><rect x="6.875" y="6.25" width="1.25" height="4.375" rx=".625" fill="#496BFF"/><rect x="6.875" y="4.375" width="1.25" height="1.25" rx=".625" fill="#496BFF"/></svg><svg fill="none" viewBox="0 0 87 43" id="logo" xmlns="http://www.w3.org/2000/svg"><path d="M7.288 43c2.082 0 3.928-1.07 4.808-2.783l-1.18-.686c-.709 1.285-2.018 2.099-3.628 2.099-1.18 0-2.19-.407-3.005-1.22-.816-.836-1.224-1.843-1.224-3.02 0-1.178.408-2.185 1.224-2.999.815-.835 1.824-1.242 3.005-1.242 1.61 0 2.962.814 3.541 2.099l1.16-.664c-.773-1.714-2.576-2.806-4.701-2.806-1.61 0-2.962.536-4.036 1.628-1.073 1.07-1.61 2.399-1.61 3.983 0 1.585.537 2.913 1.61 4.005 1.074 1.071 2.426 1.607 4.036 1.607zm17.019-1.605c1.094-1.093 1.652-2.42 1.652-4.006 0-1.584-.558-2.912-1.652-3.983-1.095-1.092-2.426-1.628-3.993-1.628-1.567 0-2.919.536-4.014 1.628-1.094 1.07-1.631 2.399-1.631 3.983 0 1.585.537 2.913 1.631 4.005 1.095 1.071 2.447 1.607 4.014 1.607 1.567 0 2.898-.536 3.993-1.606zm-6.998-.986c-.816-.835-1.223-1.842-1.223-3.02 0-1.177.408-2.184 1.223-2.998.816-.835 1.825-1.242 3.005-1.242s2.19.407 3.005 1.242c.816.814 1.224 1.82 1.224 2.998 0 1.178-.408 2.185-1.224 3.02-.815.814-1.824 1.221-3.005 1.221-1.18 0-2.19-.407-3.005-1.22zm17.332-8.63c-1.61 0-2.812.642-3.606 1.927v-1.67h-1.417v10.708h1.417v-5.611c0-2.72 1.416-3.984 3.477-3.984 1.867 0 2.92 1.114 2.92 3.02v6.575h1.416v-6.575c0-2.677-1.61-4.39-4.207-4.39zm13.922.256h-3.09v-2.998l-1.417.428v2.57h-2.254v1.37h2.254v6.49c0 2.485 1.502 3.298 4.507 2.849v-1.242c-2.06.085-3.09.235-3.09-1.607v-6.49h3.09v-1.37zm5.066 0h-1.417v10.709h1.417V36.79c0-2.463 1.438-3.555 3.391-3.555v-1.371c-1.61 0-2.726.642-3.391 1.949v-1.778zm14.965 9.36c1.095-1.093 1.653-2.42 1.653-4.006 0-1.584-.558-2.912-1.653-3.983-1.095-1.092-2.426-1.628-3.993-1.628-1.567 0-2.919.536-4.014 1.628-1.094 1.07-1.63 2.399-1.63 3.983 0 1.585.536 2.913 1.63 4.005 1.095 1.071 2.447 1.607 4.014 1.607 1.567 0 2.898-.536 3.993-1.606zm-6.998-.986c-.815-.835-1.223-1.842-1.223-3.02 0-1.177.408-2.184 1.223-2.998.816-.835 1.825-1.242 3.005-1.242s2.19.407 3.005 1.242c.816.814 1.224 1.82 1.224 2.998 0 1.178-.408 2.185-1.224 3.02-.815.814-1.824 1.221-3.005 1.221-1.18 0-2.189-.407-3.005-1.22zm13.726 2.335V27.109h-1.417v15.635h1.417zm5.41-7.903c0-1.092 1.03-1.692 2.254-1.692 1.31 0 2.168.492 2.576 1.5l1.18-.686c-.622-1.35-2.017-2.185-3.756-2.185-1.052 0-1.932.3-2.64.878-.687.579-1.03 1.307-1.03 2.185 0 2.313 2.253 2.806 4.056 3.255 1.224.322 2.211.857 2.211 1.82 0 1.179-1.073 1.714-2.468 1.714-1.438 0-2.533-.685-2.941-1.799l-1.202.707c.58 1.456 2.082 2.463 4.143 2.463 1.137 0 2.082-.279 2.79-.857.73-.578 1.095-1.306 1.095-2.227 0-2.313-2.254-2.806-4.057-3.256-1.224-.32-2.21-.856-2.21-1.82zM4.991 12.425h8.211V9.239h-8.21V3.921h8.943V.707H1.62v20.455h12.463v-3.215h-9.09v-5.522zm23.79 8.737L35.908.707h-3.665L26.758 17.1 21.304.707h-3.695l7.126 20.455h4.047z" fill="#2F3357"/><path d="M56.136 18.474c2.082-2.075 3.109-4.587 3.109-7.539 0-2.951-1.027-5.464-3.109-7.51C54.083 1.352 51.562.329 48.6.329c-2.962 0-5.484 1.023-7.566 3.098-2.053 2.045-3.079 4.558-3.079 7.51 0 2.95 1.026 5.463 3.08 7.538 2.081 2.046 4.603 3.068 7.565 3.068 2.962 0 5.483-1.022 7.536-3.068zM43.41 16.195c-1.378-1.403-2.082-3.156-2.082-5.26 0-2.104.704-3.857 2.082-5.23C44.817 4.302 46.547 3.6 48.6 3.6c2.054 0 3.784.701 5.162 2.104 1.407 1.373 2.111 3.126 2.111 5.23 0 2.104-.703 3.857-2.111 5.26-1.378 1.373-3.108 2.075-5.161 2.075-2.053 0-3.783-.702-5.19-2.075z" fill="url(#opaint0_linear)"/><defs><linearGradient id="opaint0_linear" x1="53.668" y1="21.5" x2="45.213" y2="1.124" gradientUnits="userSpaceOnUse"><stop stop-color="#2D9DCE"/><stop offset=".983" stop-color="#90D3FA"/></linearGradient></defs></svg><svg fill="none" viewBox="0 0 78 38" id="logo-head" xmlns="http://www.w3.org/2000/svg"><path d="M6.45 38c1.843 0 3.477-.946 4.256-2.46l-1.045-.606c-.627 1.136-1.786 1.855-3.21 1.855-1.045 0-1.938-.36-2.66-1.079-.722-.738-1.083-1.627-1.083-2.668 0-1.041.36-1.93 1.083-2.65.722-.738 1.615-1.098 2.66-1.098 1.424 0 2.621.72 3.134 1.855l1.026-.587c-.684-1.514-2.28-2.479-4.16-2.479-1.425 0-2.622.473-3.572 1.438-.95.947-1.425 2.12-1.425 3.52 0 1.401.475 2.575 1.425 3.54.95.946 2.147 1.42 3.572 1.42zm15.063-1.419c.97-.965 1.463-2.139 1.463-3.54 0-1.4-.494-2.573-1.463-3.52-.969-.965-2.146-1.438-3.533-1.438s-2.584.473-3.553 1.438c-.969.947-1.444 2.12-1.444 3.52 0 1.401.475 2.575 1.444 3.54.97.946 2.166 1.42 3.553 1.42s2.564-.474 3.533-1.42zm-6.193-.87c-.722-.739-1.083-1.628-1.083-2.67 0-1.04.361-1.93 1.083-2.649.722-.738 1.615-1.098 2.66-1.098 1.045 0 1.938.36 2.66 1.098.721.72 1.082 1.609 1.082 2.65 0 1.04-.36 1.93-1.082 2.668-.722.72-1.615 1.08-2.66 1.08-1.045 0-1.938-.36-2.66-1.08zm15.34-7.628c-1.425 0-2.489.568-3.192 1.703V28.31h-1.254v9.463h1.254v-4.958c0-2.404 1.254-3.52 3.078-3.52 1.653 0 2.584.983 2.584 2.668v5.81h1.253v-5.81c0-2.366-1.424-3.88-3.723-3.88zm12.322.227h-2.736v-2.65l-1.253.379v2.271h-1.995v1.211h1.995v5.735c0 2.196 1.33 2.915 3.99 2.517v-1.097c-1.825.075-2.736.208-2.736-1.42v-5.735h2.735v-1.21zm4.484 0h-1.254v9.463h1.254v-5.261c0-2.177 1.273-3.142 3.001-3.142v-1.211c-1.425 0-2.412.568-3.001 1.722v-1.57zm13.245 8.271c.968-.965 1.462-2.139 1.462-3.54 0-1.4-.494-2.573-1.462-3.52-.97-.965-2.147-1.438-3.534-1.438s-2.584.473-3.553 1.438c-.968.947-1.443 2.12-1.443 3.52 0 1.401.475 2.575 1.443 3.54.97.946 2.166 1.42 3.553 1.42s2.565-.474 3.534-1.42zm-6.194-.87c-.722-.739-1.083-1.628-1.083-2.67 0-1.04.361-1.93 1.083-2.649.722-.738 1.615-1.098 2.66-1.098 1.045 0 1.938.36 2.66 1.098.722.72 1.083 1.609 1.083 2.65 0 1.04-.361 1.93-1.083 2.668-.722.72-1.615 1.08-2.66 1.08-1.045 0-1.938-.36-2.66-1.08zm12.148 2.062V23.957h-1.253v13.816h1.253zm4.789-6.984c0-.965.912-1.495 1.995-1.495 1.159 0 1.918.436 2.28 1.325l1.044-.605c-.55-1.193-1.786-1.931-3.324-1.931-.931 0-1.71.265-2.337.776-.608.511-.912 1.154-.912 1.93 0 2.045 1.995 2.48 3.59 2.877 1.083.284 1.957.757 1.957 1.61 0 1.04-.95 1.513-2.184 1.513-1.273 0-2.242-.605-2.603-1.59l-1.064.625c.513 1.287 1.843 2.177 3.667 2.177 1.007 0 1.842-.246 2.47-.758.645-.51.968-1.154.968-1.968 0-2.044-1.995-2.48-3.59-2.877-1.083-.284-1.957-.757-1.957-1.609zM4.418 10.98h7.267V8.165H4.418v-4.7h7.916V.626h-10.9v18.076h11.03v-2.84H4.418V10.98zm21.056 7.721L31.78.625h-3.245l-4.853 14.487L18.855.625h-3.27l6.307 18.076h3.582z" fill="#636478"/><path d="M49.684 16.325c1.843-1.833 2.752-4.054 2.752-6.662 0-2.608-.909-4.83-2.752-6.637C47.868 1.193 45.636.29 43.014.29c-2.621 0-4.853.904-6.696 2.737-1.817 1.808-2.725 4.029-2.725 6.637 0 2.608.908 4.829 2.725 6.662 1.843 1.808 4.075 2.712 6.696 2.712 2.621 0 4.853-.904 6.67-2.712zM38.42 14.311c-1.22-1.24-1.843-2.789-1.843-4.648 0-1.86.623-3.409 1.843-4.623 1.246-1.239 2.777-1.859 4.594-1.859 1.817 0 3.348.62 4.568 1.86 1.246 1.213 1.869 2.763 1.869 4.622s-.623 3.408-1.869 4.648c-1.22 1.214-2.751 1.833-4.568 1.833-1.817 0-3.348-.62-4.594-1.833z" fill="url(#ppaint0_linear)"/><defs><linearGradient id="ppaint0_linear" x1="47.5" y1="18.999" x2="40.036" y2=".984" gradientUnits="userSpaceOnUse"><stop stop-color="#2D9DCE"/><stop offset=".983" stop-color="#90D3FA"/></linearGradient></defs></svg><svg fill="none" viewBox="0 0 18 18" id="map" xmlns="http://www.w3.org/2000/svg"><path fill-rule="evenodd" clip-rule="evenodd" d="M8.73 15.202c-1.477-1.3-4.98-4.664-4.98-7.327C3.75 4.5 6 2.25 9.375 2.25S15 5.063 15 7.875c0 2.234-3.55 5.888-5.009 7.296a.924.924 0 01-1.261.031zm2.52-8.077a1.875 1.875 0 11-3.75 0 1.875 1.875 0 013.75 0z" fill="#496BFF"/></svg><svg fill="none" viewBox="0 0 19 19" id="plus" xmlns="http://www.w3.org/2000/svg"><path opacity=".3" fill-rule="evenodd" clip-rule="evenodd" d="M9.167 18.333A9.167 9.167 0 109.167 0a9.167 9.167 0 000 18.333z" fill="#fff"/><path fill-rule="evenodd" clip-rule="evenodd" d="M10.083 4.583a.917.917 0 00-1.833 0v3.666H4.583a.917.917 0 100 1.834H8.25v3.666a.917.917 0 101.833 0v-3.666h3.667a.917.917 0 100-1.834h-3.667V4.583z" fill="#fff"/></svg><svg fill="none" viewBox="0 0 20 20" id="search" xmlns="http://www.w3.org/2000/svg"><path d="M11.91 13.923a.833.833 0 011.179-1.179l3.333 3.333a.833.833 0 11-1.179 1.179l-3.333-3.333z" fill="#BABDD8"/><path fill-rule="evenodd" clip-rule="evenodd" d="M3.334 9.167a5.833 5.833 0 1011.667 0 5.833 5.833 0 00-11.667 0zm10 0a4.167 4.167 0 11-8.333 0 4.167 4.167 0 018.333 0z" fill="#BABDD8"/></svg><svg fill="none" viewBox="0 0 16 16" id="select" xmlns="http://www.w3.org/2000/svg"><path d="M8 11.666L2.43 6.823a.667.667 0 00-.86 1.02l5.767 5.193A1 1 0 008.667 13l5.79-5.182a.667.667 0 00-.914-.97L8 11.666z" fill="#636478"/></svg><svg fill="none" viewBox="0 0 21 22" id="setting" xmlns="http://www.w3.org/2000/svg"><path fill-rule="evenodd" clip-rule="evenodd" d="M.534 11.707a1 1 0 010-1.414L3.417 7.41V4.416a1 1 0 011-1H7.41L9.844.982a1 1 0 011.415 0l2.434 2.434h3.89a1 1 0 011 1v3.891l1.986 1.986a1 1 0 010 1.414l-1.985 1.985v3.891a1 1 0 01-1 1h-3.891l-2.434 2.434a1 1 0 01-1.415 0L7.41 18.583H4.417a1 1 0 01-1-1V14.59L.534 11.707zM14.25 11a3.25 3.25 0 11-6.5 0 3.25 3.25 0 016.5 0z" fill="#939BA1"/></svg><svg fill="none" viewBox="0 0 14 14" id="succes" xmlns="http://www.w3.org/2000/svg"><path opacity=".3" fill-rule="evenodd" clip-rule="evenodd" d="M7 12.833A5.833 5.833 0 107 1.166a5.833 5.833 0 000 11.667z" fill="#25AE33"/><path d="M9.782 4.56a.583.583 0 01.853.796L6.55 9.731a.583.583 0 01-.806.045l-2.041-1.75a.583.583 0 11.759-.886L6.08 8.527 9.782 4.56z" fill="#25AE33"/></svg><svg fill="none" viewBox="0 0 24 24" id="user" xmlns="http://www.w3.org/2000/svg"><path opacity=".5" d="M12 11a4 4 0 110-8 4 4 0 010 8z" fill="#496BFF"/><path d="M3 20.2c.388-4.773 4.262-7.2 8.983-7.2 4.788 0 8.722 2.293 9.015 7.2.012.195 0 .8-.751.8H3.727c-.25 0-.747-.54-.726-.8z" fill="#496BFF"/></svg></svg>